<svg xmlns="http://www.w3.org/2000/svg" viewBox="0 0 512 512"><title>logo_simple_small</title><rect x="434.87" y="226.54" width="58.93" height="58.93" transform="translate(973.69 108.69) rotate(135)" style="fill:#937cb9"/><rect x="393.2" y="184.87" width="58.93" height="58.93" transform="translate(873.09 67.02) rotate(135)" style="fill:#92278f"/><rect x="351.54" y="143.2" width="58.93" height="58.93" transform="translate(772.5 25.35) rotate(135)" style="fill:#b41e8e"/><rect x="393.2" y="268.2" width="58.93" height="58.93" transform="translate(932.02 209.28) rotate(135)" style="fill:#6f60aa"/><rect x="351.54" y="309.87" width="58.93" height="58.93" transform="translate(890.35 309.87) rotate(135)" style="fill:#b41e8e"/><rect x="351.54" y="226.54" width="58.93" height="58.93" transform="translate(831.43 167.61) rotate(135)" style="fill:#812990"/><rect x="309.87" y="268.2" width="58.93" height="58.93" transform="translate(789.76 268.2) rotate(135)" style="fill:#a4006f"/><rect x="309.87" y="184.87" width="58.93" height="58.93" transform="translate(730.83 125.94) rotate(135)" style="fill:#911060"/><rect x="268.2" y="226.54" width="58.93" height="58.93" transform="translate(689.17 226.54) rotate(135)" style="fill:#4c0055"/><rect x="309.87" y="101.54" width="58.93" height="58.93" transform="translate(671.91 -16.31) rotate(135)" style="fill:#c7197d"/><rect x="268.2" y="59.87" width="58.93" height="58.93" transform="translate(571.32 -57.98) rotate(135)" style="fill:#ed0f69"/><rect x="226.54" y="18.2" width="58.93" height="58.93" transform="translate(470.72 -99.65) rotate(135)" style="fill:#f173ac"/><rect x="268.2" y="143.2" width="58.93" height="58.93" transform="translate(630.24 84.28) rotate(135)" style="fill:#bb0056"/><rect x="226.54" y="184.87" width="58.93" height="58.93" transform="translate(588.58 184.87) rotate(135)" style="fill:#900870"/><rect x="226.54" y="101.54" width="58.93" height="58.93" transform="translate(529.65 42.61) rotate(135)" style="fill:#9a258f"/><rect x="184.87" y="143.2" width="58.93" height="58.93" transform="translate(487.98 143.2) rotate(135)" style="fill:#2e3192"/><rect x="184.87" y="59.87" width="58.93" height="58.93" transform="translate(429.06 0.95) rotate(135)" style="fill:#6f60aa"/><rect x="143.2" y="101.54" width="58.93" height="58.93" transform="translate(387.39 101.54) rotate(135)" style="fill:#034ea2"/><rect x="309.87" y="351.54" width="58.93" height="58.93" transform="translate(848.69 410.46) rotate(135)" style="fill:#ed174c"/><rect x="268.2" y="393.2" width="58.93" height="58.93" transform="translate(807.02 511.06) rotate(135)" style="fill:#faa61a"/><rect x="268.2" y="309.87" width="58.93" height="58.93" transform="translate(748.09 368.8) rotate(135)" style="fill:#bb005e"/><rect x="226.54" y="351.54" width="58.93" height="58.93" transform="translate(706.43 469.39) rotate(135)" style="fill:#ed125f"/><rect x="226.54" y="268.2" width="58.93" height="58.93" transform="translate(647.5 327.13) rotate(135)" style="fill:#670053"/><rect x="184.87" y="309.87" width="58.93" height="58.93" transform="translate(605.83 427.72) rotate(135)" style="fill:#6f2c91"/><rect x="226.54" y="434.87" width="58.93" height="58.93" transform="translate(765.35 611.65) rotate(135)" style="fill:#ffd400"/><rect x="184.87" y="393.2" width="58.93" height="58.93" transform="translate(664.76 569.98) rotate(135)" style="fill:#f58220"/><rect x="143.2" y="351.54" width="58.93" height="58.93" transform="translate(564.17 528.31) rotate(135)" style="fill:#f04e23"/><rect x="184.87" y="226.54" width="58.93" height="58.93" transform="translate(546.91 285.46) rotate(135)" style="fill:#02205f"/><rect x="143.2" y="268.2" width="58.93" height="58.93" transform="translate(505.24 386.05) rotate(135)" style="fill:#007db0"/><rect x="143.2" y="184.87" width="58.93" height="58.93" transform="translate(446.32 243.8) rotate(135)" style="fill:#00548b"/><rect x="101.54" y="226.54" width="58.93" height="58.93" transform="translate(404.65 344.39) rotate(135)" style="fill:#00aeef"/><rect x="101.54" y="143.2" width="58.93" height="58.93" transform="translate(345.72 202.13) rotate(135)" style="fill:#0071a2"/><rect x="59.87" y="184.87" width="58.93" height="58.93" transform="translate(304.06 302.72) rotate(135)" style="fill:#00a88e"/><rect x="101.54" y="309.87" width="58.93" height="58.93" transform="translate(463.58 486.65) rotate(135)" style="fill:#00a995"/><rect x="59.87" y="268.2" width="58.93" height="58.93" transform="translate(362.98 444.98) rotate(135)" style="fill:#4fbfa5"/><rect x="18.2" y="226.54" width="58.93" height="58.93" transform="translate(262.39 403.31) rotate(135)" style="fill:#6ac9c8"/><path d="M155.7,357.73l-8.89-13-8.94,13h-9l12.88-18.19-12.08-17.3h9l8.14,12.13,8-12.13h9.09l-12.07,17.24,12.87,18.25Z" style="fill:#fff"/><path d="M164.8,340c0-11,8.24-18.35,18.94-18.35a16.12,16.12,0,0,1,14.79,8.67L192,333.52a9.6,9.6,0,0,0-8.3-5.16c-6.49,0-11.17,4.95-11.17,11.65s4.68,11.66,11.17,11.66a9.6,9.6,0,0,0,8.3-5.16l6.49,3.13a16.25,16.25,0,0,1-14.79,8.73C173,358.37,164.8,350.92,164.8,340Z" style="fill:#fff"/><path d="M227.37,357.73v-15H210.61v15h-7.55V322.24h7.55v13.94h16.76V322.24H235v35.49Z" style="fill:#fff"/><path d="M266.48,357.73l-2.23-6H249l-2.24,6h-8.56l13.67-35.49h9.47l13.68,35.49Zm-9.84-27.93-5.54,15.27h11.07Z" style="fill:#fff"/><path d="M302.82,357.73,285.9,334.59v23.14h-7.55V322.24h7.77l16.44,22.3v-22.3h7.55v35.49Z" style="fill:#fff"/><path d="M315.44,340c0-11.22,8.51-18.35,18.94-18.35A16.55,16.55,0,0,1,349,329.59l-6.23,3.4a10.2,10.2,0,0,0-8.4-4.63c-6.49,0-11.18,4.95-11.18,11.65s4.69,11.66,11.18,11.66a11.81,11.81,0,0,0,7.5-2.72V344.7h-9.36v-6.6h16.92v13.62a19.65,19.65,0,0,1-15.06,6.65C324,358.37,315.44,351.19,315.44,340Z" style="fill:#fff"/><path d="M355.45,357.73V322.24h25.11v6.65H363v7.45h17.18V343H363v8.09h17.55v6.65Z" style="fill:#fff"/><path d="M251.53,261,224.1,288.4a6.33,6.33,0,0,0,4.48,10.8h0a6.33,6.33,0,0,0,4.47-1.85l18.48-18.48a6.32,6.32,0,0,1,8.94,0L279,297.35a6.33,6.33,0,0,0,4.47,1.85h0a6.33,6.33,0,0,0,4.48-10.8L260.47,261A6.3,6.3,0,0,0,251.53,261Z" style="fill:#fff"/><path d="M260.47,251.19l27.43-27.42a6.33,6.33,0,0,0-4.48-10.8h0a6.33,6.33,0,0,0-4.47,1.85L260.47,233.3a6.32,6.32,0,0,1-8.94,0l-18.48-18.48a6.33,6.33,0,0,0-4.47-1.85h0a6.33,6.33,0,0,0-4.48,10.8l27.43,27.42A6.3,6.3,0,0,0,260.47,251.19Z" style="fill:#fff"/></svg>