<svg xmlns="http://www.w3.org/2000/svg" viewBox="0 0 128 128"><title>about</title><rect x="107.64" y="56.81" width="14.38" height="14.38" transform="translate(241.29 28.06) rotate(135)" style="fill:#937cb9"/><rect x="97.48" y="46.64" width="14.38" height="14.38" transform="translate(216.74 17.89) rotate(135)" style="fill:#92278f"/><rect x="87.31" y="36.48" width="14.38" height="14.38" transform="translate(192.2 7.72) rotate(135)" style="fill:#b41e8e"/><rect x="97.48" y="66.98" width="14.38" height="14.38" transform="translate(231.12 52.6) rotate(135)" style="fill:#6f60aa"/><rect x="87.31" y="77.14" width="14.38" height="14.38" transform="translate(220.95 77.14) rotate(135)" style="fill:#b41e8e"/><rect x="87.31" y="56.81" width="14.38" height="14.38" transform="translate(206.58 42.43) rotate(135)" style="fill:#812990"/><rect x="77.14" y="66.98" width="14.38" height="14.38" transform="translate(196.41 66.98) rotate(135)" style="fill:#a4006f"/><rect x="77.14" y="46.64" width="14.38" height="14.38" transform="translate(182.03 32.27) rotate(135)" style="fill:#911060"/><rect x="66.98" y="56.81" width="14.38" height="14.38" transform="translate(171.87 56.81) rotate(135)" style="fill:#4c0055"/><rect x="77.14" y="26.31" width="14.38" height="14.38" transform="translate(167.65 -2.44) rotate(135)" style="fill:#c7197d"/><rect x="66.98" y="16.14" width="14.38" height="14.38" transform="translate(143.11 -12.61) rotate(135)" style="fill:#ed0f69"/><rect x="56.81" y="5.98" width="14.38" height="14.38" transform="translate(118.57 -22.78) rotate(135)" style="fill:#f173ac"/><rect x="66.98" y="36.48" width="14.38" height="14.38" transform="translate(157.49 22.1) rotate(135)" style="fill:#bb0056"/><rect x="56.81" y="46.64" width="14.38" height="14.38" transform="translate(147.32 46.64) rotate(135)" style="fill:#900870"/><rect x="56.81" y="26.31" width="14.38" height="14.38" transform="translate(132.94 11.93) rotate(135)" style="fill:#9a258f"/><rect x="46.64" y="36.48" width="14.38" height="14.38" transform="translate(122.78 36.48) rotate(135)" style="fill:#2e3192"/><rect x="46.64" y="16.14" width="14.38" height="14.38" transform="translate(108.4 1.77) rotate(135)" style="fill:#6f60aa"/><rect x="36.48" y="26.31" width="14.38" height="14.38" transform="translate(98.23 26.31) rotate(135)" style="fill:#034ea2"/><rect x="77.14" y="87.31" width="14.38" height="14.38" transform="translate(210.79 101.69) rotate(135)" style="fill:#ed174c"/><rect x="66.98" y="97.48" width="14.38" height="14.38" transform="translate(200.62 126.23) rotate(135)" style="fill:#faa61a"/><rect x="66.98" y="77.14" width="14.38" height="14.38" transform="translate(186.24 91.52) rotate(135)" style="fill:#bb005e"/><rect x="56.81" y="87.31" width="14.38" height="14.38" transform="translate(176.08 116.07) rotate(135)" style="fill:#ed125f"/><rect x="56.81" y="66.98" width="14.38" height="14.38" transform="translate(161.7 81.36) rotate(135)" style="fill:#670053"/><rect x="46.64" y="77.14" width="14.38" height="14.38" transform="translate(151.53 105.9) rotate(135)" style="fill:#6f2c91"/><rect x="56.81" y="107.64" width="14.38" height="14.38" transform="translate(190.45 150.78) rotate(135)" style="fill:#ffd400"/><rect x="46.64" y="97.48" width="14.38" height="14.38" transform="translate(165.91 140.61) rotate(135)" style="fill:#f58220"/><rect x="36.48" y="87.31" width="14.38" height="14.38" transform="translate(141.37 130.44) rotate(135)" style="fill:#f04e23"/><rect x="46.64" y="56.81" width="14.38" height="14.38" transform="translate(137.15 71.19) rotate(135)" style="fill:#02205f"/><rect x="36.48" y="66.98" width="14.38" height="14.38" transform="translate(126.99 95.73) rotate(135)" style="fill:#007db0"/><rect x="36.48" y="46.64" width="14.38" height="14.38" transform="translate(112.61 61.02) rotate(135)" style="fill:#00548b"/><rect x="26.31" y="56.81" width="14.38" height="14.38" transform="translate(102.44 85.57) rotate(135)" style="fill:#00aeef"/><rect x="26.31" y="36.48" width="14.38" height="14.38" transform="translate(88.07 50.86) rotate(135)" style="fill:#0071a2"/><rect x="16.14" y="46.64" width="14.38" height="14.38" transform="translate(77.9 75.4) rotate(135)" style="fill:#00a88e"/><rect x="26.31" y="77.14" width="14.38" height="14.38" transform="translate(116.82 120.28) rotate(135)" style="fill:#00a995"/><rect x="16.14" y="66.98" width="14.38" height="14.38" transform="translate(92.28 110.11) rotate(135)" style="fill:#4fbfa5"/><rect x="5.98" y="56.81" width="14.38" height="14.38" transform="translate(67.73 99.94) rotate(135)" style="fill:#6ac9c8"/><path d="M37.07,83.6l-2.42-3.53L32.22,83.6H29.77l3.5-4.95L30,74h2.44l2.22,3.3L36.83,74h2.48L36,78.64l3.51,5Z" style="fill:#fff"/><path d="M39.54,78.78a4.9,4.9,0,0,1,5.15-5,4.38,4.38,0,0,1,4,2.36L47,77a2.59,2.59,0,0,0-2.26-1.41,3.17,3.17,0,0,0,0,6.34A2.6,2.6,0,0,0,47,80.55l1.77.85a4.42,4.42,0,0,1-4,2.37A4.9,4.9,0,0,1,39.54,78.78Z" style="fill:#fff"/><path d="M56.56,83.6V79.53H52V83.6H50V74h2v3.79h4.56V74h2.07V83.6Z" style="fill:#fff"/><path d="M67.2,83.6,66.59,82H62.45l-.61,1.63H59.51L63.23,74h2.58l3.72,9.65ZM64.52,76,63,80.16h3Z" style="fill:#fff"/><path d="M77.08,83.6l-4.6-6.29V83.6h-2V74h2.11L77,80V74h2.06V83.6Z" style="fill:#fff"/><path d="M80.51,78.78a4.9,4.9,0,0,1,5.16-5,4.53,4.53,0,0,1,4,2.15l-1.7.93a2.77,2.77,0,0,0-2.28-1.26,3.17,3.17,0,0,0,0,6.34,3.23,3.23,0,0,0,2-.74V80.06H85.16v-1.8h4.6V82a5.32,5.32,0,0,1-4.09,1.8A4.91,4.91,0,0,1,80.51,78.78Z" style="fill:#fff"/><path d="M91.4,83.6V74h6.83v1.81H93.45v2h4.68v1.81H93.45v2.2h4.78V83.6Z" style="fill:#fff"/><path d="M63.13,57.28l-7.46,7.46a1.72,1.72,0,0,0,1.22,2.94h0a1.74,1.74,0,0,0,1.22-.5l5-5a1.72,1.72,0,0,1,2.43,0l5,5a1.72,1.72,0,0,0,1.22.5h0A1.72,1.72,0,0,0,73,64.74l-7.46-7.46A1.72,1.72,0,0,0,63.13,57.28Z" style="fill:#fff"/><path d="M65.56,54.62,73,47.16a1.71,1.71,0,0,0-1.21-2.93h0a1.72,1.72,0,0,0-1.22.5l-5,5a1.7,1.7,0,0,1-2.43,0l-5-5a1.74,1.74,0,0,0-1.22-.5h0a1.72,1.72,0,0,0-1.22,2.93l7.46,7.46A1.72,1.72,0,0,0,65.56,54.62Z" style="fill:#fff"/></svg>